<?xml version="1.0" standalone="no"?><!DOCTYPE svg PUBLIC "-//W3C//DTD SVG 1.1//EN" "http://www.w3.org/Graphics/SVG/1.1/DTD/svg11.dtd"><svg t="1724920083338" class="icon" viewBox="0 0 1024 1024" version="1.1" xmlns="http://www.w3.org/2000/svg" p-id="14211" xmlns:xlink="http://www.w3.org/1999/xlink" width="200" height="200"><path d="M955.15136 737.61792h-27.83744c-6.28736-74.33216-62.72-132.75648-132.30592-132.75648-69.64736 0-126.208 58.42432-132.37248 132.75648h-323.1232c0.512-4.42368 1.47456-8.79104 1.47456-13.27616 0-65.9968-53.84192-119.48032-120.24832-119.48032-66.34496 0-120.08448 53.48352-120.08448 119.48032 0 4.48512 0.79872 8.85248 1.24928 13.27616h-27.99616c-29.50144 0-53.4528-23.79264-53.4528-53.16608V233.216c0-29.36832 23.95648-53.03296 53.4528-53.03296h796.59008l138.1376 224.39936v279.87456c0 29.36832-23.92064 53.16096-53.48352 53.16096zM340.98688 286.31552c0-14.6176-12.02688-26.55232-26.71104-26.55232H127.26272c-14.68928 0-26.61376 11.9296-26.61376 26.55232v159.24736a26.58816 26.58816 0 0 0 26.61376 26.61376h187.008c14.68416 0 26.71104-11.86304 26.71104-26.61376V286.31552h0.00512z m293.76 0c0-14.6176-12.0576-26.55232-26.74688-26.55232h-186.88c-14.848 0-26.77248 11.9296-26.77248 26.55232v159.24736c0 14.75072 11.92448 26.61376 26.77248 26.61376h186.88c14.68416 0 26.74688-11.86304 26.74688-26.61376V286.31552z m267.04384 79.65696c-5.8368-10.83904-7.56736-15.58528-10.26048-20.39296l-43.1616-85.8112h-133.59104a26.60864 26.60864 0 0 0-26.55232 26.55232v159.24736a26.5728 26.5728 0 0 0 26.55232 26.61376h160.3328c14.68416 0 26.6752-11.86304 26.6752-26.61376V365.97248zM220.73344 658.02752c51.6608 0 93.5424 41.62048 93.5424 92.928 0 51.24096-41.8816 92.86144-93.5424 92.86144-51.59424 0-93.47072-41.62048-93.47072-92.86144 0-51.30752 41.87648-92.928 93.47072-92.928z m587.55072 0c51.69152 0 93.50656 41.62048 93.50656 92.928 0 51.24096-41.81504 92.86144-93.50656 92.86144-51.62496 0-93.50656-41.62048-93.50656-92.86144 0-51.30752 41.8816-92.928 93.50656-92.928z" p-id="14212" fill="#ffffff"></path></svg>