<?xml version="1.0" standalone="no"?><!DOCTYPE svg PUBLIC "-//W3C//DTD SVG 1.1//EN" "http://www.w3.org/Graphics/SVG/1.1/DTD/svg11.dtd"><svg t="1724921322507" class="icon" viewBox="0 0 1024 1024" version="1.1" xmlns="http://www.w3.org/2000/svg" p-id="38014" xmlns:xlink="http://www.w3.org/1999/xlink" width="200" height="200"><path d="M960 938.666667h-21.333333V320a21.333333 21.333333 0 0 0-27.193334-20.513333l-15.473333 4.42V149.333333a21.333333 21.333333 0 0 0-42.666667 0v59.333334l-128-25.6V256h-42.666666V149.333333a21.333333 21.333333 0 0 0-11.793334-19.08l-170.666666-85.333333a21.333333 21.333333 0 0 0-19.08 0l-170.666667 85.333333A21.333333 21.333333 0 0 0 298.666667 149.333333v119.166667l-36.42 36.413333A21.333333 21.333333 0 0 0 256 320v106.666667h-42.666667v-42.666667h-42.666666V277.333333a21.333333 21.333333 0 0 0-42.666667 0v106.666667H64a21.333333 21.333333 0 0 0-21.333333 21.333333v469.333334a21.333333 21.333333 0 0 0 21.333333 21.333333h64V512h42.666667v24.14l94.833333-63.226667a21.333333 21.333333 0 0 1 23.666667 35.506667L170.666667 587.42V938.666667H64a21.333333 21.333333 0 0 0 0 42.666666h896a21.333333 21.333333 0 0 0 0-42.666666zM426.666667 256h42.666666v85.333333h-42.666666z m-85.333334 469.333333h-42.666666V640h42.666666z m85.333334-341.333333h42.666666v85.333333h-42.666666z m85.333333 554.666667h-42.666667V554.666667h42.666667z m298.666667-42.666667h-42.666667v-85.333333h42.666667z m0-128h-42.666667v-85.333333h42.666667z m0-128h-42.666667V554.666667h42.666667z m0-128h-42.666667V426.666667h42.666667z" fill="#ffffff" p-id="38015"></path></svg>