<?xml version="1.0" standalone="no"?><!DOCTYPE svg PUBLIC "-//W3C//DTD SVG 1.1//EN" "http://www.w3.org/Graphics/SVG/1.1/DTD/svg11.dtd"><svg t="1724738530573" class="icon" viewBox="0 0 1024 1024" version="1.1" xmlns="http://www.w3.org/2000/svg" p-id="1454" xmlns:xlink="http://www.w3.org/1999/xlink" width="200" height="200"><path d="M906.688 318.272l-368-246.208a48.192 48.192 0 0 0-53.376 0l-368 246.208A48 48 0 0 0 96 358.4v553.6a48 48 0 0 0 48 48h736a48 48 0 0 0 48-48V358.4a48 48 0 0 0-21.312-39.872M592 816h-160a48 48 0 0 1 0-96h160a48 48 0 0 1 0 96" fill="#ffffff" p-id="1455"></path></svg>