<?xml version="1.0" standalone="no"?><!DOCTYPE svg PUBLIC "-//W3C//DTD SVG 1.1//EN" "http://www.w3.org/Graphics/SVG/1.1/DTD/svg11.dtd"><svg t="1724738774548" class="icon" viewBox="0 0 1024 1024" version="1.1" xmlns="http://www.w3.org/2000/svg" p-id="18127" xmlns:xlink="http://www.w3.org/1999/xlink" width="200" height="200"><path d="M921.575003 170.604174l-51.243745 0 0 853.270841 51.243745 0c56.368119 0 102.362505-51.243745 102.362505-113.736116l0-625.673624C1023.937508 221.847919 977.818137 170.604174 921.575003 170.604174L921.575003 170.604174zM0.062492 284.465275l0 625.673624c0 62.617356 46.11937 113.736116 102.362505 113.736116l51.243745 0 0-853.270841-51.243745 0C46.181863 170.604174 0.062492 221.847919 0.062492 284.465275L0.062492 284.465275zM686.103747 51.618699C651.233004 33.620896 595.489808 0 512 0c-83.489808 0-139.233004 33.620896-174.103747 51.618699l0 119.11046-112.611254 0 0 853.270841L798.715001 1024l0-853.270841-112.611254 0L686.103747 51.618699 686.103747 51.618699zM624.611254 170.604174 399.388746 170.604174l0-75.990724c27.371659-12.998413 66.366899-26.371781 112.611254-26.371781 46.244355 0 85.36458 13.373368 112.611254 26.371781L624.611254 170.604174 624.611254 170.604174zM624.611254 170.604174" p-id="18128" fill="#ffffff"></path></svg>