<?xml version="1.0" standalone="no"?><!DOCTYPE svg PUBLIC "-//W3C//DTD SVG 1.1//EN" "http://www.w3.org/Graphics/SVG/1.1/DTD/svg11.dtd"><svg t="1724920792363" class="icon" viewBox="0 0 1024 1024" version="1.1" xmlns="http://www.w3.org/2000/svg" p-id="22619" xmlns:xlink="http://www.w3.org/1999/xlink" width="200" height="200"><path d="M716.753769 511.999744V409.606348h-153.590093l102.393396-204.786791h-102.393396l-51.196698 102.393396-51.196698-102.393396H358.376885l102.393395 204.786791H307.180187v102.393396h153.590093v51.196698H307.180187v102.393395h153.590093v153.590094h102.393396v-153.590094h153.590093v-102.393395h-153.590093v-51.196698z m131.063547 233.456942A409.573583 409.573583 0 0 1 102.393396 511.999744H0a511.966978 511.966978 0 0 0 921.540561 307.180187l102.393395 102.393396v-255.98349h-255.983489zM176.11664 278.542802A409.573583 409.573583 0 0 1 921.540561 511.999744h102.393395A511.966978 511.966978 0 0 0 102.393396 204.819557L0 102.426162v255.983489h255.983489z" fill="#ffffff" p-id="22620"></path></svg>