<?xml version="1.0" standalone="no"?><!DOCTYPE svg PUBLIC "-//W3C//DTD SVG 1.1//EN" "http://www.w3.org/Graphics/SVG/1.1/DTD/svg11.dtd"><svg t="1724738650324" class="icon" viewBox="0 0 1024 1024" version="1.1" xmlns="http://www.w3.org/2000/svg" p-id="15534" xmlns:xlink="http://www.w3.org/1999/xlink" width="200" height="200"><path d="M366.603162 86.81472c-59.02336 0-115.12832 22.79424-156.6208 64.28672-42.07616 41.49248-64.8704 96.43008-64.8704 155.45344 0 58.44992 22.79424 113.96096 64.8704 155.46368 41.49248 41.49248 97.01376 64.28672 156.6208 64.28672 59.0336 0 115.12832-22.79424 156.6208-64.28672 42.07616-41.49248 64.8704-96.43008 64.8704-155.46368s-22.79424-113.96096-64.8704-155.45344c-42.07616-41.50272-97.5872-64.28672-156.6208-64.28672z m122.7264 509.02016c-2.9184-0.59392-5.8368-0.59392-9.34912-0.59392a54.53824 54.53824 0 0 0-43.25376 21.05344c-18.11456 23.36768-39.7312 50.8416-59.60704 77.7216l-6.43072 8.192-7.0144-8.192a13453.29152 13453.29152 0 0 0-62.53568-75.38688c-10.51648-12.26752-25.71264-19.8656-42.07616-19.28192-4.08576 0-8.18176 0.58368-11.69408 1.16736C109.466522 630.8864 12.463002 737.8432 0.185242 872.83712A52.62336 52.62336 0 0 0 13.630362 912.5888c9.9328 10.50624 23.9616 16.93696 37.98016 16.93696h535.90016c0.59392-14.0288-0.58368-275.84512-0.58368-299.79648-30.38208-16.36352-63.11936-28.04736-97.59744-33.8944z m527.72864-109.86496l-22.79424-25.77408 0.57344-286.89408 22.2208-25.12896c11.10016-15.19616 5.26336-27.46368-13.44512-28.04736H680.889242a26.2144 26.2144 0 0 0-25.57952-19.8656c-14.61248 0-26.29632 11.68384-26.29632 25.71264v784.27136c0 14.0288 11.68384 25.72288 26.29632 25.72288s26.29632-11.69408 26.29632-25.72288V513.4336h321.9968c18.71872 0 25.14944-12.27776 13.45536-27.46368z m0 0" fill="#ffffff" p-id="15535"></path></svg>