<?xml version="1.0" standalone="no"?><!DOCTYPE svg PUBLIC "-//W3C//DTD SVG 1.1//EN" "http://www.w3.org/Graphics/SVG/1.1/DTD/svg11.dtd"><svg t="1724919199220" class="icon" viewBox="0 0 1041 1024" version="1.1" xmlns="http://www.w3.org/2000/svg" p-id="5235" xmlns:xlink="http://www.w3.org/1999/xlink" width="203.3203125" height="200"><path d="M0.02304 701.344l232-184 186.672 77.328 112-324L1024.02304 28l17.328 956-1028-12z" fill="#ffffff" p-id="5236"></path><path d="M40.02304 212V984" fill="#ffffff" p-id="5237"></path><path d="M40.02304 1024A40 40 0 0 1 0.02304 984V212a40 40 0 1 1 80 0V984A40 40 0 0 1 40.02304 1024z" fill="#ffffff" p-id="5238"></path><path d="M40.02304 984h945.008" fill="#ffffff" p-id="5239"></path><path d="M985.03104 1024H40.02304a40 40 0 1 1 0-80h945.008a40 40 0 1 1 0 80zM40.03904 736a40.016 40.016 0 0 1-25.52-70.832l216-178.656a40 40 0 0 1 50.992 61.648l-216 178.656A39.68 39.68 0 0 1 40.03904 736z" fill="#ffffff" p-id="5240"></path><path d="M443.99104 646.688c-5.744 0-11.6-1.248-17.136-3.888l-188-89.328a40.016 40.016 0 0 1 34.32-72.272l188 89.328a40.016 40.016 0 0 1-17.184 76.16z" fill="#ffffff" p-id="5241"></path><path d="M444.02304 646.688a40.08 40.08 0 0 1-38.16-52.016l104-330.672a40 40 0 0 1 76.32 24l-104 330.672a40.048 40.048 0 0 1-38.16 28.016z" fill="#ffffff" p-id="5242"></path><path d="M566.37504 309.344a40 40 0 0 1-19.072-75.184L965.97504 7.504a40 40 0 1 1 38.096 70.352L585.39904 304.512a39.84 39.84 0 0 1-19.024 4.832z" fill="#ffffff" p-id="5243"></path></svg>