<?xml version="1.0" standalone="no"?><!DOCTYPE svg PUBLIC "-//W3C//DTD SVG 1.1//EN" "http://www.w3.org/Graphics/SVG/1.1/DTD/svg11.dtd"><svg t="1724738713578" class="icon" viewBox="0 0 1034 1024" version="1.1" xmlns="http://www.w3.org/2000/svg" p-id="16852" xmlns:xlink="http://www.w3.org/1999/xlink" width="201.953125" height="200"><path d="M391.47388 223.544672c100.079916 1.689999 186.963843 115.295903 247.991792 252.919788-117.103902 38.779967-234.679803 157.107868-304.419745 260.139781-93.299922-3.369997-186.911843 20.483983-266.885776 82.915931a408.229657 408.229657 0 0 0-32.183973 27.971976c-12.983989 12.521989-30.155975 4.455996-25.023978-14.935987C118.892109 424.826503 245.732002 221.822674 391.47388 223.544672z" fill="#ffffff" p-id="16853"></path><path d="M708.989613 459.656474c93.573921 0 195.599836 97.279918 306.079743 291.841755 9.189992 24.01398 5.855995 41.065966-10.001991 51.155957-163.791862 72.695939-306.671742 72.695939-428.63964 0C507.101783 761.336221 426.54185 732.308245 344.361919 723.404252c80.523932-120.217899 230.401806-263.747778 364.627694-263.747778z" fill="#ffffff" p-id="16854"></path><path d="M67.936152 859.504138c77.245935-52.571956 168.573858-75.039937 265.787776-68.851942 87.595926 5.573995 177.145851 34.477971 256.213785 81.119932l2.393998 1.417999c92.963922 55.407953 198.333833 67.489943 316.735734 36.123969a9.999992 9.999992 0 1 1 5.119996 19.333984c-122.203897 32.373973-232.125805 20.231983-329.159724-36.543969l-2.935997-1.733999c-77.003935-45.895961-164.427862-74.335938-249.637791-79.759933-92.939922-5.913995-179.857849 15.467987-253.263787 65.427945a9.999992 9.999992 0 0 1-11.25399-16.533986z" fill="#ffffff" p-id="16855"></path><path d="M120.606107 885.940116c110.679907-55.741953 244.255795-56.469953 373.613687-9.293992a6.999994 6.999994 0 0 1-4.795996 13.151989c-125.945894-45.929961-255.557785-45.223962-362.519696 8.645992a6.999994 6.999994 0 1 1-6.299995-12.503989zM631.401678 854.718142a6.999994 6.999994 0 0 1 9.291993-3.413997c76.699936 35.49197 161.299865 43.595963 254.019786 24.25198a6.999994 6.999994 0 0 1 2.859998 13.705988c-95.58392 19.939983-183.243846 11.54199-262.759779-25.251979a6.999994 6.999994 0 0 1-3.411998-9.291992z" fill="#ffffff" p-id="16856"></path><path d="M693.865626 388.992533c0.562 0.118 1.391999 0.256 2.485998 0.414 133.329888 19.373984 208.373825-56.715952 219.015816-102.839914 12.697989-55.035954-45.973961-98.119918-93.823921-86.629927-15.257987 3.661997-28.659976 9.275992-39.479967 15.571987-0.09-0.006 1.119999-26.011978-15.325987-55.407953-35.031971-57.139952-129.331891-58.683951-148.895875 28.993975-13.687989 61.345948 22.947981 142.71988 74.285937 197.829834l1.737999 2.067998z" fill="#ffffff" p-id="16857"></path></svg>