<?xml version="1.0" standalone="no"?><!DOCTYPE svg PUBLIC "-//W3C//DTD SVG 1.1//EN" "http://www.w3.org/Graphics/SVG/1.1/DTD/svg11.dtd"><svg t="1724738065051" class="icon" viewBox="0 0 1027 1024" version="1.1" xmlns="http://www.w3.org/2000/svg" p-id="1004" xmlns:xlink="http://www.w3.org/1999/xlink" width="200.5859375" height="200"><path d="M513.566305 298.622371m-298.622371 0a298.622371 298.622371 0 1 0 597.244742 0 298.622371 298.622371 0 1 0-597.244742 0Z" fill="#ffffff" p-id="1005"></path><path d="M1025.490369 921.88992l-24.742996-119.022345A263.640893 263.640893 0 0 0 738.38629 597.244742h-32.421858a91.719728 91.719728 0 0 0-39.674115 9.385275 367.305516 367.305516 0 0 1-305.448025 0 91.719728 91.719728 0 0 0-39.674115-9.385275h-32.421857a263.640893 263.640893 0 0 0-260.65467 205.622833L1.64224 921.88992A85.320677 85.320677 0 0 0 86.962917 1023.848129h849.793948A85.320677 85.320677 0 0 0 1025.490369 921.88992z" fill="#ffffff" p-id="1006"></path></svg>