<?xml version="1.0" standalone="no"?><!DOCTYPE svg PUBLIC "-//W3C//DTD SVG 1.1//EN" "http://www.w3.org/Graphics/SVG/1.1/DTD/svg11.dtd"><svg t="1724920168374" class="icon" viewBox="0 0 1024 1024" version="1.1" xmlns="http://www.w3.org/2000/svg" p-id="18808" xmlns:xlink="http://www.w3.org/1999/xlink" width="200" height="200"><path d="M1022 514c-122 9.8-463 38.4-463 38.4-5.7-34.6 5.7-110.6 5.7-110.6 205.9 33.9 414.9 46.7 456.5 45.1l0.7-84.3c-229.7-12.8-427.1-153.5-427.1-153.5-109.8-89.6-235.4-70-235.4-70-50.2 2.2-100.5 20.3-140.7 56.5C164.9 283 116.1 346.9 74.5 408.7c-49.5 73-70.3 152-28 236.3 13.7 27.1 31.6 52 50.3 73.8 4.3 5.3 20.1 27.9 27.3 27.9-32.3 18.8-80.4 48.1-122 79.8h96.2s62.5-42.9 125.6-77.6c41.6 0.8 89 1.5 128.5 3.1-27.2 18.8-85.4 57.9-128.5 94.8h95.5s179.5-121.1 328.1-148.3l-15.1 2.3c297.2-76.8 389.8-81.3 389.8-81.3V514z m-898.6 29.6c-33.6 0-60.7-17-60.7-37.9s27.1-37.9 60.7-37.9 60.7 16.9 60.7 37.9c0.1 20.9-27 37.9-60.7 37.9z m169.2-202.1L172 335.2s54.5-77.5 71.8-82.2l74 1.5c-0.1 0.1-25.2 87-25.2 87z m56.8-75.8l101.2 3 0.7 85.4-121.4-4.6c0 0.1 19.5-83.8 19.5-83.8z m-7.4 240c0-21 27-37.9 60.7-37.9s60.7 16.9 60.7 37.9c0 20.9-27.1 37.9-60.7 37.9s-60.7-17-60.7-37.9z" p-id="18809" fill="#ffffff"></path></svg>