<?xml version="1.0" standalone="no"?><!DOCTYPE svg PUBLIC "-//W3C//DTD SVG 1.1//EN" "http://www.w3.org/Graphics/SVG/1.1/DTD/svg11.dtd"><svg t="1724919975159" class="icon" viewBox="0 0 1391 1024" version="1.1" xmlns="http://www.w3.org/2000/svg" p-id="12852" xmlns:xlink="http://www.w3.org/1999/xlink" width="271.6796875" height="200"><path d="M1391.419482 666.627797c-137.534539 10.559888-521.722457 41.215562-521.722457 41.215562a531.834349 531.834349 0 0 1 6.399932-118.910736 4048.212988 4048.212988 0 0 0 514.490534 48.447485l0.831991-90.623037a1068.788644 1068.788644 0 0 1-481.210887-164.990247 377.979984 377.979984 0 0 0-265.213182-75.263201 260.029237 260.029237 0 0 0-158.590315 60.671356 995.701421 995.701421 0 0 0-162.622272 186.046023 228.73357 228.73357 0 0 0-31.487666 253.949302 402.107728 402.107728 0 0 0 56.703398 79.295157c4.863948 5.695939 22.59176 29.887682 30.783673 29.887683a1438.576715 1438.576715 0 0 0-137.534539 85.759089H350.598541s70.399252-46.07951 141.566496-83.199116c46.975501 0.831991 100.350934 1.599983 144.702462 3.263965-30.783673 20.159786-95.99898 62.271338-144.702462 101.886917h107.518857a1247.282748 1247.282748 0 0 1 369.596073-159.422306l-17.023819 2.431974a2871.713488 2871.713488 0 0 1 439.099335-87.295072v-113.086799z m-1013.493232 19.199796c-37.183605 0-67.135287-17.023819-67.135286-38.079595s29.887682-38.079595 67.135286-38.079596 67.135287 16.89582 67.135287 38.079596-29.951682 38.335593-67.135287 38.335592zM568.836222 482.245756l-135.806557-6.399932s61.567346-80.89514 80.767142-85.759089l83.199116 1.599983z m60.671355-88.191063l117.246755 3.263965 0.831991 91.455029-140.798504-4.863949 22.59176-89.599048z m-4.031957 253.885303c0-21.055776 29.887682-38.079595 67.135287-38.079596s67.135287 16.89582 67.135287 38.079596-29.887682 38.079595-67.135287 38.079595-67.135287-17.023819-67.135287-38.079595z m-50.047468-432.571404c-32.319657 9.727897-360.828166 104.766887-360.828166 104.766887a149.886407 149.886407 0 0 1-158.334318-51.647452l74.687207-31.03967a60.799354 60.799354 0 0 0 41.087563-1.151988l84.863098-21.055776L129.800887 26.442599s-25.599728-40.959565 63.99932-20.927778c0 0 161.85428 123.966683 190.909971 146.686442a56.895395 56.895395 0 0 0 42.495549 0l127.358647-41.919555s86.335083-26.36772 106.046873 20.927778c21.055776 49.791471-52.543442 74.303211-84.7351 84.031107zM42.121818 253.448187A182.59006 182.59006 0 0 1 2.44224 194.504813s6.847927-45.375518 63.99932 0c16.575824 13.311859 34.239636 22.335763 45.375518 29.887683z" fill="#ffffff" p-id="12853"></path></svg>