<?xml version="1.0" standalone="no"?><!DOCTYPE svg PUBLIC "-//W3C//DTD SVG 1.1//EN" "http://www.w3.org/Graphics/SVG/1.1/DTD/svg11.dtd"><svg t="1724738279535" class="icon" viewBox="0 0 1033 1024" version="1.1" xmlns="http://www.w3.org/2000/svg" p-id="911" xmlns:xlink="http://www.w3.org/1999/xlink" width="201.7578125" height="200"><path d="M988.757333 389.632L191.459556 595.114667a60.700444 60.700444 0 0 1-59.562667-16.327111L20.792889 517.063111a39.196444 39.196444 0 0 1-15.246222-54.670222 42.496 42.496 0 0 1 56.832-14.677333l118.556444 65.877333L438.357333 415.288889 128.142222 242.972444c-28.216889-15.701333-38.627556-49.038222-23.324444-74.581333 15.303111-25.543111 50.631111-33.507556 78.791111-17.863111l487.822222 175.786667 167.025778-63.715556c89.770667-23.153778 184.888889 32.312889 192.853333 60.757333 7.907556 28.501333-11.207111 58.197333-42.552889 66.275556z m-888.035555 389.973333h721.351111c22.983111 0 41.642667 17.92 41.642667 40.049778 0 22.072889-18.659556 39.992889-41.642667 39.992889H100.721778a40.789333 40.789333 0 0 1-41.585778-39.992889c0-22.129778 18.659556-40.049778 41.585778-40.049778z" fill="#ffffff" p-id="912"></path></svg>