<?xml version="1.0" standalone="no"?><!DOCTYPE svg PUBLIC "-//W3C//DTD SVG 1.1//EN" "http://www.w3.org/Graphics/SVG/1.1/DTD/svg11.dtd"><svg t="1724910931862" class="icon" viewBox="0 0 1024 1024" version="1.1" xmlns="http://www.w3.org/2000/svg" p-id="6685" xmlns:xlink="http://www.w3.org/1999/xlink" width="200" height="200"><path d="M625.2 97.7c-166.5 0-301.4 134.9-301.4 301.4 0 66.7 21.7 128.3 58.4 178.2L288.8 670 176.2 556.5c-17.9-18.1-47.1-18.2-65.1-0.3-18.1 17.9-18.2 47.1-0.3 65.1l112.6 113.5L111 846.4c-18.1 17.9-18.2 47.1-0.3 65.1 9 9.1 20.8 13.6 32.7 13.6 11.7 0 23.5-4.5 32.4-13.4l112.4-111.5 111.5 112.4c9 9.1 20.8 13.6 32.7 13.6 11.7 0 23.5-4.5 32.4-13.4 18.1-17.9 18.2-47.1 0.3-65.1L353.7 735.4l93.7-93c49.9 36.5 111.3 58.1 177.8 58.1 166.5 0 301.4-134.9 301.4-301.4S791.7 97.7 625.2 97.7z m148 449.4c-39.5 39.5-92.1 61.3-148 61.3s-108.5-21.8-148-61.3-61.3-92.1-61.3-148 21.8-108.5 61.3-148 92.1-61.3 148-61.3 108.5 21.8 148 61.3 61.3 92.1 61.3 148-21.8 108.5-61.3 148z" fill="#CF78AD" p-id="6686"></path></svg>